%TF.GenerationSoftware,KiCad,Pcbnew,9.0.4*%
%TF.CreationDate,2026-10-07T20:03:57+05:30*%
%TF.ProjectId,TriBitLux_V2_0,54726942-6974-44c7-9578-5f56325f302e,rev?*%
%TF.SameCoordinates,Original*%
%TF.FileFunction,Soldermask,Top*%
%TF.FilePolarity,Negative*%
%FSLAX46Y46*%
G04 Gerber Fmt 4.6, Leading zero omitted, Abs format (unit mm)*
G04 Created by KiCad (PCBNEW 9.0.4) date 2026-10-07 20:03:57*
%MOMM*%
%LPD*%
G01*
G04 APERTURE LIST*
G04 Aperture macros list*
%AMRoundRect*
0 Rectangle with rounded corners*
0 $1 Rounding radius*
0 $2 $3 $4 $5 $6 $7 $8 $9 X,Y pos of 4 corners*
0 Add a 4 corners polygon primitive as box body*
4,1,4,$2,$3,$4,$5,$6,$7,$8,$9,$2,$3,0*
0 Add four circle primitives for the rounded corners*
1,1,$1+$1,$2,$3*
1,1,$1+$1,$4,$5*
1,1,$1+$1,$6,$7*
1,1,$1+$1,$8,$9*
0 Add four rect primitives between the rounded corners*
20,1,$1+$1,$2,$3,$4,$5,0*
20,1,$1+$1,$4,$5,$6,$7,0*
20,1,$1+$1,$6,$7,$8,$9,0*
20,1,$1+$1,$8,$9,$2,$3,0*%
G04 Aperture macros list end*
%ADD10C,1.600000*%
%ADD11R,1.700000X1.700000*%
%ADD12C,1.700000*%
%ADD13RoundRect,0.250000X0.550000X0.550000X-0.550000X0.550000X-0.550000X-0.550000X0.550000X-0.550000X0*%
%ADD14RoundRect,0.250000X-0.550000X0.550000X-0.550000X-0.550000X0.550000X-0.550000X0.550000X0.550000X0*%
%ADD15R,1.524000X2.524000*%
%ADD16O,1.524000X2.524000*%
%ADD17R,1.560000X1.560000*%
%ADD18C,1.560000*%
G04 APERTURE END LIST*
D10*
%TO.C,R20*%
X179041000Y-122755000D03*
X179041000Y-130375000D03*
%TD*%
%TO.C,R8*%
X132803469Y-94845000D03*
X125183469Y-94845000D03*
%TD*%
%TO.C,R7*%
X142810000Y-94845000D03*
X135190000Y-94845000D03*
%TD*%
D11*
%TO.C,5V*%
X124900000Y-129275000D03*
D12*
X124900000Y-126735000D03*
%TD*%
D13*
%TO.C,LM339*%
X146136000Y-115545000D03*
D10*
X146136000Y-113005000D03*
X146136000Y-110465000D03*
X146136000Y-107925000D03*
X146136000Y-105385000D03*
X146136000Y-102845000D03*
X146136000Y-100305000D03*
X138516000Y-100305000D03*
X138516000Y-102845000D03*
X138516000Y-105385000D03*
X138516000Y-107925000D03*
X138516000Y-110465000D03*
X138516000Y-113005000D03*
X138516000Y-115545000D03*
%TD*%
%TO.C,R17*%
X182041000Y-122755000D03*
X182041000Y-130375000D03*
%TD*%
%TO.C,R26*%
X168331000Y-130375000D03*
X168331000Y-122755000D03*
%TD*%
%TO.C,R22*%
X138331000Y-122755000D03*
X138331000Y-130375000D03*
%TD*%
%TO.C,R27*%
X165331000Y-130375000D03*
X165331000Y-122755000D03*
%TD*%
%TO.C,R24*%
X144331000Y-122755000D03*
X144331000Y-130375000D03*
%TD*%
D14*
%TO.C,74LS148*%
X172221000Y-99845000D03*
D10*
X169681000Y-99845000D03*
X167141000Y-99845000D03*
X164601000Y-99845000D03*
X162061000Y-99845000D03*
X159521000Y-99845000D03*
X156981000Y-99845000D03*
X154441000Y-99845000D03*
X154441000Y-107465000D03*
X156981000Y-107465000D03*
X159521000Y-107465000D03*
X162061000Y-107465000D03*
X164601000Y-107465000D03*
X167141000Y-107465000D03*
X169681000Y-107465000D03*
X172221000Y-107465000D03*
%TD*%
D15*
%TO.C,7-Segment Display*%
X124481000Y-115545000D03*
D16*
X127021000Y-115545000D03*
X129561000Y-115545000D03*
X132101000Y-115545000D03*
X134641000Y-115545000D03*
X134641000Y-100305000D03*
X132101000Y-100305000D03*
X129561000Y-100305000D03*
X127021000Y-100305000D03*
X124481000Y-100305000D03*
%TD*%
D10*
%TO.C,R4*%
X172829591Y-94845000D03*
X165209591Y-94845000D03*
%TD*%
%TO.C,R19*%
X176041000Y-122755000D03*
X176041000Y-130375000D03*
%TD*%
%TO.C,R11*%
X162331000Y-122755000D03*
X162331000Y-130375000D03*
%TD*%
%TO.C,R25*%
X171331000Y-130375000D03*
X171331000Y-122755000D03*
%TD*%
D17*
%TO.C,Potentiometer*%
X194830000Y-121730000D03*
D18*
X197330000Y-126730000D03*
X199830000Y-121730000D03*
%TD*%
D10*
%TO.C,LDR*%
X189581000Y-107845000D03*
X205081000Y-107845000D03*
%TD*%
%TO.C,R15*%
X132331000Y-122755000D03*
X132331000Y-130375000D03*
%TD*%
%TO.C,R16*%
X135331000Y-122755000D03*
X135331000Y-130375000D03*
%TD*%
%TO.C,R1*%
X202849183Y-94849698D03*
X195229183Y-94849698D03*
%TD*%
%TO.C,R21*%
X141331000Y-122755000D03*
X141331000Y-130375000D03*
%TD*%
%TO.C,R14*%
X153331000Y-122755000D03*
X153331000Y-130375000D03*
%TD*%
D14*
%TO.C,74LS48*%
X172221000Y-112040000D03*
D10*
X169681000Y-112040000D03*
X167141000Y-112040000D03*
X164601000Y-112040000D03*
X162061000Y-112040000D03*
X159521000Y-112040000D03*
X156981000Y-112040000D03*
X154441000Y-112040000D03*
X154441000Y-119660000D03*
X156981000Y-119660000D03*
X159521000Y-119660000D03*
X162061000Y-119660000D03*
X164601000Y-119660000D03*
X167141000Y-119660000D03*
X169681000Y-119660000D03*
X172221000Y-119660000D03*
%TD*%
%TO.C,0.1\u00B5F*%
X150331000Y-113340000D03*
X150331000Y-118340000D03*
%TD*%
%TO.C,R12*%
X159331000Y-122755000D03*
X159331000Y-130375000D03*
%TD*%
%TO.C,R2*%
X192842652Y-94845000D03*
X185222652Y-94845000D03*
%TD*%
%TO.C,R10*%
X150331000Y-122755000D03*
X150331000Y-130375000D03*
%TD*%
%TO.C,R6*%
X152816530Y-94845000D03*
X145196530Y-94845000D03*
%TD*%
D13*
%TO.C,LM339*%
X184331000Y-115545000D03*
D10*
X184331000Y-113005000D03*
X184331000Y-110465000D03*
X184331000Y-107925000D03*
X184331000Y-105385000D03*
X184331000Y-102845000D03*
X184331000Y-100305000D03*
X176711000Y-100305000D03*
X176711000Y-102845000D03*
X176711000Y-105385000D03*
X176711000Y-107925000D03*
X176711000Y-110465000D03*
X176711000Y-113005000D03*
X176711000Y-115545000D03*
%TD*%
%TO.C,0.1\u00B5F*%
X183031000Y-119845000D03*
X178031000Y-119845000D03*
%TD*%
%TO.C,R23*%
X147331000Y-122755000D03*
X147331000Y-130375000D03*
%TD*%
%TO.C,R3*%
X182836122Y-94845000D03*
X175216122Y-94845000D03*
%TD*%
%TO.C,R13*%
X156331000Y-122755000D03*
X156331000Y-130375000D03*
%TD*%
%TO.C,0.1\u00B5F*%
X144836000Y-119845000D03*
X139836000Y-119845000D03*
%TD*%
%TO.C,0.1\u00B5F*%
X150331000Y-106150000D03*
X150331000Y-101150000D03*
%TD*%
%TO.C,R18*%
X185041000Y-122755000D03*
X185041000Y-130375000D03*
%TD*%
%TO.C,R5*%
X162823061Y-94845000D03*
X155203061Y-94845000D03*
%TD*%
M02*
