%TF.GenerationSoftware,KiCad,Pcbnew,9.0.4*%
%TF.CreationDate,2026-10-07T20:03:57+05:30*%
%TF.ProjectId,TriBitLux_V2_0,54726942-6974-44c7-9578-5f56325f302e,rev?*%
%TF.SameCoordinates,Original*%
%TF.FileFunction,Copper,L1,Top*%
%TF.FilePolarity,Positive*%
%FSLAX46Y46*%
G04 Gerber Fmt 4.6, Leading zero omitted, Abs format (unit mm)*
G04 Created by KiCad (PCBNEW 9.0.4) date 2026-10-07 20:03:57*
%MOMM*%
%LPD*%
G01*
G04 APERTURE LIST*
G04 Aperture macros list*
%AMRoundRect*
0 Rectangle with rounded corners*
0 $1 Rounding radius*
0 $2 $3 $4 $5 $6 $7 $8 $9 X,Y pos of 4 corners*
0 Add a 4 corners polygon primitive as box body*
4,1,4,$2,$3,$4,$5,$6,$7,$8,$9,$2,$3,0*
0 Add four circle primitives for the rounded corners*
1,1,$1+$1,$2,$3*
1,1,$1+$1,$4,$5*
1,1,$1+$1,$6,$7*
1,1,$1+$1,$8,$9*
0 Add four rect primitives between the rounded corners*
20,1,$1+$1,$2,$3,$4,$5,0*
20,1,$1+$1,$4,$5,$6,$7,0*
20,1,$1+$1,$6,$7,$8,$9,0*
20,1,$1+$1,$8,$9,$2,$3,0*%
G04 Aperture macros list end*
%TA.AperFunction,ComponentPad*%
%ADD10C,1.600000*%
%TD*%
%TA.AperFunction,ComponentPad*%
%ADD11R,1.700000X1.700000*%
%TD*%
%TA.AperFunction,ComponentPad*%
%ADD12C,1.700000*%
%TD*%
%TA.AperFunction,ComponentPad*%
%ADD13RoundRect,0.250000X0.550000X0.550000X-0.550000X0.550000X-0.550000X-0.550000X0.550000X-0.550000X0*%
%TD*%
%TA.AperFunction,ComponentPad*%
%ADD14RoundRect,0.250000X-0.550000X0.550000X-0.550000X-0.550000X0.550000X-0.550000X0.550000X0.550000X0*%
%TD*%
%TA.AperFunction,ComponentPad*%
%ADD15R,1.524000X2.524000*%
%TD*%
%TA.AperFunction,ComponentPad*%
%ADD16O,1.524000X2.524000*%
%TD*%
%TA.AperFunction,ComponentPad*%
%ADD17R,1.560000X1.560000*%
%TD*%
%TA.AperFunction,ComponentPad*%
%ADD18C,1.560000*%
%TD*%
%TA.AperFunction,Conductor*%
%ADD19C,1.000000*%
%TD*%
%TA.AperFunction,Conductor*%
%ADD20C,0.200000*%
%TD*%
G04 APERTURE END LIST*
D10*
%TO.P,R20,1*%
%TO.N,Net-(U3-I3)*%
X179041000Y-122755000D03*
%TO.P,R20,2*%
%TO.N,VDD*%
X179041000Y-130375000D03*
%TD*%
%TO.P,R8,1*%
%TO.N,Net-(U2D-+)*%
X132803469Y-94845000D03*
%TO.P,R8,2*%
%TO.N,GND*%
X125183469Y-94845000D03*
%TD*%
%TO.P,R7,1*%
%TO.N,Net-(U2B-+)*%
X142810000Y-94845000D03*
%TO.P,R7,2*%
%TO.N,Net-(U2D-+)*%
X135190000Y-94845000D03*
%TD*%
D11*
%TO.P,5V,1,Pin_1*%
%TO.N,VDD*%
X124900000Y-129275000D03*
D12*
%TO.P,5V,2,Pin_2*%
%TO.N,GND*%
X124900000Y-126735000D03*
%TD*%
D13*
%TO.P,LM339,1*%
%TO.N,Net-(U3-I5)*%
X146136000Y-115545000D03*
D10*
%TO.P,LM339,2*%
%TO.N,Net-(U3-I4)*%
X146136000Y-113005000D03*
%TO.P,LM339,3,V+*%
%TO.N,VDD*%
X146136000Y-110465000D03*
%TO.P,LM339,4,-*%
%TO.N,Net-(U1A--)*%
X146136000Y-107925000D03*
%TO.P,LM339,5,+*%
%TO.N,Net-(U2A-+)*%
X146136000Y-105385000D03*
%TO.P,LM339,6,-*%
%TO.N,Net-(U1A--)*%
X146136000Y-102845000D03*
%TO.P,LM339,7,+*%
%TO.N,Net-(U2B-+)*%
X146136000Y-100305000D03*
%TO.P,LM339,8,-*%
%TO.N,Net-(U1A--)*%
X138516000Y-100305000D03*
%TO.P,LM339,9,+*%
%TO.N,Net-(U2D-+)*%
X138516000Y-102845000D03*
%TO.P,LM339,10,-*%
%TO.N,Net-(U1A--)*%
X138516000Y-105385000D03*
%TO.P,LM339,11,+*%
%TO.N,GND*%
X138516000Y-107925000D03*
%TO.P,LM339,12,V-*%
X138516000Y-110465000D03*
%TO.P,LM339,13*%
%TO.N,Net-(U3-I7)*%
X138516000Y-113005000D03*
%TO.P,LM339,14*%
%TO.N,Net-(U3-I6)*%
X138516000Y-115545000D03*
%TD*%
%TO.P,R17,1*%
%TO.N,Net-(U3-IO)*%
X182041000Y-122755000D03*
%TO.P,R17,2*%
%TO.N,VDD*%
X182041000Y-130375000D03*
%TD*%
%TO.P,R26,1*%
%TO.N,VDD*%
X168331000Y-130375000D03*
%TO.P,R26,2*%
%TO.N,Net-(U4-BI)*%
X168331000Y-122755000D03*
%TD*%
%TO.P,R22,1*%
%TO.N,Net-(U3-I6)*%
X138331000Y-122755000D03*
%TO.P,R22,2*%
%TO.N,VDD*%
X138331000Y-130375000D03*
%TD*%
%TO.P,R27,1*%
%TO.N,VDD*%
X165331000Y-130375000D03*
%TO.P,R27,2*%
%TO.N,Net-(U4-RBI)*%
X165331000Y-122755000D03*
%TD*%
%TO.P,R24,1*%
%TO.N,Net-(U3-I4)*%
X144331000Y-122755000D03*
%TO.P,R24,2*%
%TO.N,VDD*%
X144331000Y-130375000D03*
%TD*%
D14*
%TO.P,74LS148,1,I4*%
%TO.N,Net-(U3-I4)*%
X172221000Y-99845000D03*
D10*
%TO.P,74LS148,2,I5*%
%TO.N,Net-(U3-I5)*%
X169681000Y-99845000D03*
%TO.P,74LS148,3,I6*%
%TO.N,Net-(U3-I6)*%
X167141000Y-99845000D03*
%TO.P,74LS148,4,I7*%
%TO.N,Net-(U3-I7)*%
X164601000Y-99845000D03*
%TO.P,74LS148,5,EI*%
%TO.N,GND*%
X162061000Y-99845000D03*
%TO.P,74LS148,6,S2*%
%TO.N,Net-(U3-S2)*%
X159521000Y-99845000D03*
%TO.P,74LS148,7,S1*%
%TO.N,Net-(U3-S1)*%
X156981000Y-99845000D03*
%TO.P,74LS148,8,GND*%
%TO.N,GND*%
X154441000Y-99845000D03*
%TO.P,74LS148,9,S0*%
%TO.N,Net-(U3-S0)*%
X154441000Y-107465000D03*
%TO.P,74LS148,10,IO*%
%TO.N,Net-(U3-IO)*%
X156981000Y-107465000D03*
%TO.P,74LS148,11,I1*%
%TO.N,Net-(U3-I1)*%
X159521000Y-107465000D03*
%TO.P,74LS148,12,I2*%
%TO.N,Net-(U3-I2)*%
X162061000Y-107465000D03*
%TO.P,74LS148,13,I3*%
%TO.N,Net-(U3-I3)*%
X164601000Y-107465000D03*
%TO.P,74LS148,14,GS*%
%TO.N,unconnected-(U3-GS-Pad14)*%
X167141000Y-107465000D03*
%TO.P,74LS148,15,EO*%
%TO.N,unconnected-(U3-EO-Pad15)*%
X169681000Y-107465000D03*
%TO.P,74LS148,16,VCC*%
%TO.N,VDD*%
X172221000Y-107465000D03*
%TD*%
D15*
%TO.P,7-Segment Display,1,E*%
%TO.N,Net-(U5-E)*%
X124481000Y-115545000D03*
D16*
%TO.P,7-Segment Display,2,D*%
%TO.N,Net-(U5-D)*%
X127021000Y-115545000D03*
%TO.P,7-Segment Display,3,CC*%
%TO.N,GND*%
X129561000Y-115545000D03*
%TO.P,7-Segment Display,4,C*%
%TO.N,Net-(U5-C)*%
X132101000Y-115545000D03*
%TO.P,7-Segment Display,5,DP*%
%TO.N,GND*%
X134641000Y-115545000D03*
%TO.P,7-Segment Display,6,B*%
%TO.N,Net-(U5-B)*%
X134641000Y-100305000D03*
%TO.P,7-Segment Display,7,A*%
%TO.N,Net-(U5-A)*%
X132101000Y-100305000D03*
%TO.P,7-Segment Display,8,CC*%
%TO.N,GND*%
X129561000Y-100305000D03*
%TO.P,7-Segment Display,9,F*%
%TO.N,Net-(U5-F)*%
X127021000Y-100305000D03*
%TO.P,7-Segment Display,10,G*%
%TO.N,Net-(U5-G)*%
X124481000Y-100305000D03*
%TD*%
D10*
%TO.P,R4,1*%
%TO.N,Net-(U1D-+)*%
X172829591Y-94845000D03*
%TO.P,R4,2*%
%TO.N,Net-(U1C-+)*%
X165209591Y-94845000D03*
%TD*%
%TO.P,R19,1*%
%TO.N,Net-(U3-I2)*%
X176041000Y-122755000D03*
%TO.P,R19,2*%
%TO.N,VDD*%
X176041000Y-130375000D03*
%TD*%
%TO.P,R11,1*%
%TO.N,Net-(U4-b)*%
X162331000Y-122755000D03*
%TO.P,R11,2*%
%TO.N,Net-(U5-B)*%
X162331000Y-130375000D03*
%TD*%
%TO.P,R25,1*%
%TO.N,VDD*%
X171331000Y-130375000D03*
%TO.P,R25,2*%
%TO.N,Net-(U4-LT)*%
X171331000Y-122755000D03*
%TD*%
D17*
%TO.P,Potentiometer,1,1*%
%TO.N,Net-(U1A--)*%
X194830000Y-121730000D03*
D18*
%TO.P,Potentiometer,2,2*%
%TO.N,GND*%
X197330000Y-126730000D03*
%TO.P,Potentiometer,3,3*%
X199830000Y-121730000D03*
%TD*%
D10*
%TO.P,LDR,1*%
%TO.N,Net-(U1A--)*%
X189581000Y-107845000D03*
%TO.P,LDR,2*%
%TO.N,VDD*%
X205081000Y-107845000D03*
%TD*%
%TO.P,R15,1*%
%TO.N,Net-(U4-f)*%
X132331000Y-122755000D03*
%TO.P,R15,2*%
%TO.N,Net-(U5-F)*%
X132331000Y-130375000D03*
%TD*%
%TO.P,R16,1*%
%TO.N,Net-(U4-g)*%
X135331000Y-122755000D03*
%TO.P,R16,2*%
%TO.N,Net-(U5-G)*%
X135331000Y-130375000D03*
%TD*%
%TO.P,R1,1*%
%TO.N,VDD*%
X202849183Y-94849698D03*
%TO.P,R1,2*%
%TO.N,Net-(U1A-+)*%
X195229183Y-94849698D03*
%TD*%
%TO.P,R21,1*%
%TO.N,Net-(U3-I7)*%
X141331000Y-122755000D03*
%TO.P,R21,2*%
%TO.N,VDD*%
X141331000Y-130375000D03*
%TD*%
%TO.P,R14,1*%
%TO.N,Net-(U4-e)*%
X153331000Y-122755000D03*
%TO.P,R14,2*%
%TO.N,Net-(U5-E)*%
X153331000Y-130375000D03*
%TD*%
D14*
%TO.P,74LS48,1,B*%
%TO.N,Net-(U3-S1)*%
X172221000Y-112040000D03*
D10*
%TO.P,74LS48,2,C*%
%TO.N,Net-(U3-S2)*%
X169681000Y-112040000D03*
%TO.P,74LS48,3,LT*%
%TO.N,Net-(U4-LT)*%
X167141000Y-112040000D03*
%TO.P,74LS48,4,BI*%
%TO.N,Net-(U4-BI)*%
X164601000Y-112040000D03*
%TO.P,74LS48,5,RBI*%
%TO.N,Net-(U4-RBI)*%
X162061000Y-112040000D03*
%TO.P,74LS48,6,D*%
%TO.N,GND*%
X159521000Y-112040000D03*
%TO.P,74LS48,7,A*%
%TO.N,Net-(U3-S0)*%
X156981000Y-112040000D03*
%TO.P,74LS48,8,GND*%
%TO.N,GND*%
X154441000Y-112040000D03*
%TO.P,74LS48,9,e*%
%TO.N,Net-(U4-e)*%
X154441000Y-119660000D03*
%TO.P,74LS48,10,d*%
%TO.N,Net-(U4-d)*%
X156981000Y-119660000D03*
%TO.P,74LS48,11,c*%
%TO.N,Net-(U4-c)*%
X159521000Y-119660000D03*
%TO.P,74LS48,12,b*%
%TO.N,Net-(U4-b)*%
X162061000Y-119660000D03*
%TO.P,74LS48,13,a*%
%TO.N,Net-(U4-a)*%
X164601000Y-119660000D03*
%TO.P,74LS48,14,g*%
%TO.N,Net-(U4-g)*%
X167141000Y-119660000D03*
%TO.P,74LS48,15,f*%
%TO.N,Net-(U4-f)*%
X169681000Y-119660000D03*
%TO.P,74LS48,16,VCC*%
%TO.N,VDD*%
X172221000Y-119660000D03*
%TD*%
%TO.P,0.1\u00B5F,1*%
%TO.N,GND*%
X150331000Y-113340000D03*
%TO.P,0.1\u00B5F,2*%
%TO.N,VDD*%
X150331000Y-118340000D03*
%TD*%
%TO.P,R12,1*%
%TO.N,Net-(U4-c)*%
X159331000Y-122755000D03*
%TO.P,R12,2*%
%TO.N,Net-(U5-C)*%
X159331000Y-130375000D03*
%TD*%
%TO.P,R2,1*%
%TO.N,Net-(U1A-+)*%
X192842652Y-94845000D03*
%TO.P,R2,2*%
%TO.N,Net-(U1B-+)*%
X185222652Y-94845000D03*
%TD*%
%TO.P,R10,1*%
%TO.N,Net-(U4-a)*%
X150331000Y-122755000D03*
%TO.P,R10,2*%
%TO.N,Net-(U5-A)*%
X150331000Y-130375000D03*
%TD*%
%TO.P,R6,1*%
%TO.N,Net-(U2A-+)*%
X152816530Y-94845000D03*
%TO.P,R6,2*%
%TO.N,Net-(U2B-+)*%
X145196530Y-94845000D03*
%TD*%
D13*
%TO.P,LM339,1*%
%TO.N,Net-(U3-I1)*%
X184331000Y-115545000D03*
D10*
%TO.P,LM339,2*%
%TO.N,Net-(U3-IO)*%
X184331000Y-113005000D03*
%TO.P,LM339,3,V+*%
%TO.N,VDD*%
X184331000Y-110465000D03*
%TO.P,LM339,4,-*%
%TO.N,Net-(U1A--)*%
X184331000Y-107925000D03*
%TO.P,LM339,5,+*%
%TO.N,Net-(U1A-+)*%
X184331000Y-105385000D03*
%TO.P,LM339,6,-*%
%TO.N,Net-(U1A--)*%
X184331000Y-102845000D03*
%TO.P,LM339,7,+*%
%TO.N,Net-(U1B-+)*%
X184331000Y-100305000D03*
%TO.P,LM339,8,-*%
%TO.N,Net-(U1A--)*%
X176711000Y-100305000D03*
%TO.P,LM339,9,+*%
%TO.N,Net-(U1D-+)*%
X176711000Y-102845000D03*
%TO.P,LM339,10,-*%
%TO.N,Net-(U1A--)*%
X176711000Y-105385000D03*
%TO.P,LM339,11,+*%
%TO.N,Net-(U1C-+)*%
X176711000Y-107925000D03*
%TO.P,LM339,12,V-*%
%TO.N,GND*%
X176711000Y-110465000D03*
%TO.P,LM339,13*%
%TO.N,Net-(U3-I3)*%
X176711000Y-113005000D03*
%TO.P,LM339,14*%
%TO.N,Net-(U3-I2)*%
X176711000Y-115545000D03*
%TD*%
%TO.P,0.1\u00B5F,1*%
%TO.N,VDD*%
X183031000Y-119845000D03*
%TO.P,0.1\u00B5F,2*%
%TO.N,GND*%
X178031000Y-119845000D03*
%TD*%
%TO.P,R23,1*%
%TO.N,Net-(U3-I5)*%
X147331000Y-122755000D03*
%TO.P,R23,2*%
%TO.N,VDD*%
X147331000Y-130375000D03*
%TD*%
%TO.P,R3,1*%
%TO.N,Net-(U1B-+)*%
X182836122Y-94845000D03*
%TO.P,R3,2*%
%TO.N,Net-(U1D-+)*%
X175216122Y-94845000D03*
%TD*%
%TO.P,R13,1*%
%TO.N,Net-(U4-d)*%
X156331000Y-122755000D03*
%TO.P,R13,2*%
%TO.N,Net-(U5-D)*%
X156331000Y-130375000D03*
%TD*%
%TO.P,0.1\u00B5F,1*%
%TO.N,VDD*%
X144836000Y-119845000D03*
%TO.P,0.1\u00B5F,2*%
%TO.N,GND*%
X139836000Y-119845000D03*
%TD*%
%TO.P,0.1\u00B5F,1*%
%TO.N,VDD*%
X150331000Y-106150000D03*
%TO.P,0.1\u00B5F,2*%
%TO.N,GND*%
X150331000Y-101150000D03*
%TD*%
%TO.P,R18,1*%
%TO.N,Net-(U3-I1)*%
X185041000Y-122755000D03*
%TO.P,R18,2*%
%TO.N,VDD*%
X185041000Y-130375000D03*
%TD*%
%TO.P,R5,1*%
%TO.N,Net-(U1C-+)*%
X162823061Y-94845000D03*
%TO.P,R5,2*%
%TO.N,Net-(U2A-+)*%
X155203061Y-94845000D03*
%TD*%
D19*
%TO.N,VDD*%
X171331000Y-130375000D02*
X171331000Y-132559000D01*
X168331000Y-132559000D02*
X168330000Y-132560000D01*
X201118000Y-103882000D02*
X201831000Y-103169000D01*
X174331000Y-109575000D02*
X172221000Y-107465000D01*
X176041000Y-130375000D02*
X176041000Y-128041000D01*
D20*
X172221000Y-107465000D02*
X170231000Y-105475000D01*
D19*
X171331000Y-132559000D02*
X171330000Y-132560000D01*
X179041000Y-128041000D02*
X179000000Y-128000000D01*
X182041000Y-130375000D02*
X182041000Y-128041000D01*
X168331000Y-130375000D02*
X168331000Y-132559000D01*
X172460000Y-132560000D02*
X173700000Y-131320000D01*
X138331000Y-132560000D02*
X138331000Y-130375000D01*
D20*
X146811000Y-119845000D02*
X144836000Y-119845000D01*
D19*
X187100000Y-128000000D02*
X185000000Y-128000000D01*
X173700000Y-121676000D02*
X174471000Y-120905000D01*
X124900000Y-129275000D02*
X128185000Y-132560000D01*
X189331000Y-125769000D02*
X187100000Y-128000000D01*
X173710000Y-128000000D02*
X173700000Y-128010000D01*
X174331000Y-109575000D02*
X147026000Y-109575000D01*
X184331000Y-110465000D02*
X185951000Y-110465000D01*
X147330000Y-132560000D02*
X144330000Y-132560000D01*
X185000000Y-128000000D02*
X182000000Y-128000000D01*
X205081000Y-107845000D02*
X201118000Y-103882000D01*
X179000000Y-128000000D02*
X176000000Y-128000000D01*
D20*
X170231000Y-105475000D02*
X151006000Y-105475000D01*
D19*
X202849183Y-102150817D02*
X202849183Y-94849698D01*
X182041000Y-128041000D02*
X182000000Y-128000000D01*
X141331000Y-130375000D02*
X141331000Y-132559000D01*
X185041000Y-130375000D02*
X185041000Y-128041000D01*
X176041000Y-128041000D02*
X176000000Y-128000000D01*
X173700000Y-131320000D02*
X173700000Y-121676000D01*
X165330000Y-132560000D02*
X147330000Y-132560000D01*
X179041000Y-130375000D02*
X179041000Y-128041000D01*
X201831000Y-103169000D02*
X202849183Y-102150817D01*
X191155000Y-113845000D02*
X189331000Y-113845000D01*
X174471000Y-120905000D02*
X174471000Y-119845000D01*
X165331000Y-130375000D02*
X165331000Y-132559000D01*
D20*
X147811000Y-112140000D02*
X147811000Y-118845000D01*
D19*
X201831000Y-103169000D02*
X191155000Y-113845000D01*
D20*
X147811000Y-118845000D02*
X146811000Y-119845000D01*
D19*
X174286000Y-119660000D02*
X174471000Y-119845000D01*
X144331000Y-130375000D02*
X144331000Y-132559000D01*
X144331000Y-132559000D02*
X144330000Y-132560000D01*
X172221000Y-119660000D02*
X174286000Y-119660000D01*
X147026000Y-109575000D02*
X146136000Y-110465000D01*
X174471000Y-109715000D02*
X174331000Y-109575000D01*
D20*
X146136000Y-110465000D02*
X147811000Y-112140000D01*
D19*
X182000000Y-128000000D02*
X179000000Y-128000000D01*
X171330000Y-132560000D02*
X168330000Y-132560000D01*
X147331000Y-130375000D02*
X147331000Y-132559000D01*
D20*
X151006000Y-105475000D02*
X150331000Y-106150000D01*
D19*
X189331000Y-113845000D02*
X189331000Y-125769000D01*
X128185000Y-132560000D02*
X138331000Y-132560000D01*
X144330000Y-132560000D02*
X141330000Y-132560000D01*
X147331000Y-132559000D02*
X147330000Y-132560000D01*
D20*
X185841000Y-111975000D02*
X185841000Y-118885000D01*
D19*
X174471000Y-119845000D02*
X174471000Y-109715000D01*
X185951000Y-110465000D02*
X189331000Y-113845000D01*
X141331000Y-132559000D02*
X141330000Y-132560000D01*
D20*
X185841000Y-118885000D02*
X184881000Y-119845000D01*
D19*
X141330000Y-132560000D02*
X138331000Y-132560000D01*
X168330000Y-132560000D02*
X165330000Y-132560000D01*
X171330000Y-132560000D02*
X172460000Y-132560000D01*
X176000000Y-128000000D02*
X173710000Y-128000000D01*
X185041000Y-128041000D02*
X185000000Y-128000000D01*
X165331000Y-132559000D02*
X165330000Y-132560000D01*
D20*
X184331000Y-110465000D02*
X185841000Y-111975000D01*
X184881000Y-119845000D02*
X183031000Y-119845000D01*
%TO.N,GND*%
X138516000Y-107925000D02*
X138436000Y-107845000D01*
X176711000Y-110465000D02*
X176711000Y-110225000D01*
%TO.N,Net-(U1A-+)*%
X194040000Y-94849698D02*
X194040000Y-96390000D01*
X194040000Y-94849698D02*
X192847350Y-94849698D01*
X194040000Y-96390000D02*
X185045000Y-105385000D01*
X185045000Y-105385000D02*
X184331000Y-105385000D01*
X192847350Y-94849698D02*
X192842652Y-94845000D01*
X195229183Y-94849698D02*
X194040000Y-94849698D01*
%TO.N,Net-(U1B-+)*%
X184040000Y-94845000D02*
X184030000Y-94855000D01*
X182836122Y-94845000D02*
X184040000Y-94845000D01*
X184040000Y-94845000D02*
X185222652Y-94845000D01*
X184030000Y-94855000D02*
X184030000Y-100004000D01*
X184030000Y-100004000D02*
X184331000Y-100305000D01*
%TO.N,Net-(U1C-+)*%
X162823061Y-94845000D02*
X164010000Y-94845000D01*
X174330000Y-106120000D02*
X176135000Y-107925000D01*
X176135000Y-107925000D02*
X176711000Y-107925000D01*
X164010000Y-94845000D02*
X165209591Y-94845000D01*
X164010000Y-94845000D02*
X164020000Y-94855000D01*
X165820000Y-98310000D02*
X173900000Y-98310000D01*
X164020000Y-96510000D02*
X165820000Y-98310000D01*
X173900000Y-98310000D02*
X174330000Y-98740000D01*
X164020000Y-94855000D02*
X164020000Y-96510000D01*
X174330000Y-98740000D02*
X174330000Y-106120000D01*
%TO.N,Net-(U1D-+)*%
X174731000Y-98573900D02*
X174731000Y-100865000D01*
X172829591Y-94845000D02*
X174020000Y-94845000D01*
X174020000Y-97862900D02*
X174731000Y-98573900D01*
X174731000Y-100865000D02*
X176711000Y-102845000D01*
X174020000Y-94845000D02*
X175216122Y-94845000D01*
X174020000Y-94845000D02*
X174020000Y-97862900D01*
%TO.N,Net-(U2A-+)*%
X154010000Y-94845000D02*
X155203061Y-94845000D01*
X154010000Y-94845000D02*
X154010000Y-96590000D01*
X147880000Y-103641000D02*
X146136000Y-105385000D01*
X152800000Y-97800000D02*
X148980000Y-97800000D01*
X152816530Y-94845000D02*
X154010000Y-94845000D01*
X154010000Y-96590000D02*
X152800000Y-97800000D01*
X147880000Y-98900000D02*
X147880000Y-103641000D01*
X148980000Y-97800000D02*
X147880000Y-98900000D01*
%TO.N,Net-(U2B-+)*%
X144000000Y-94845000D02*
X144000000Y-96660000D01*
X146136000Y-98796000D02*
X146136000Y-100305000D01*
X142810000Y-94845000D02*
X144000000Y-94845000D01*
X144000000Y-96660000D02*
X146136000Y-98796000D01*
X144000000Y-94845000D02*
X145196530Y-94845000D01*
%TO.N,Net-(U1A--)*%
X143595500Y-105384500D02*
X146136000Y-107924999D01*
X184300250Y-102845000D02*
X181760750Y-105384500D01*
X146136000Y-102845000D02*
X143596500Y-105384500D01*
X146136000Y-107924999D02*
X146136000Y-107925000D01*
X179219750Y-102844500D02*
X181759750Y-105384500D01*
X141055500Y-102844500D02*
X143595500Y-105384500D01*
X138516000Y-105384000D02*
X141055500Y-102844500D01*
X176680250Y-105384000D02*
X179219750Y-102844500D01*
X138516000Y-100305000D02*
X141055500Y-102844500D01*
X138516000Y-105385000D02*
X138516000Y-105384000D01*
X176680250Y-100305000D02*
X179219750Y-102844500D01*
X143596500Y-105384500D02*
X143595500Y-105384500D01*
X181759750Y-105384500D02*
X184300250Y-107924999D01*
%TO.N,Net-(U5-A)*%
X131247200Y-127627000D02*
X122802000Y-119181800D01*
X147583000Y-127627000D02*
X131247200Y-127627000D01*
X132101000Y-101499000D02*
X132101000Y-100305000D01*
X122802000Y-110798000D02*
X132101000Y-101499000D01*
X150331000Y-130375000D02*
X147583000Y-127627000D01*
X122802000Y-119181800D02*
X122802000Y-110798000D01*
%TO.N,Net-(U4-a)*%
X163831000Y-120430000D02*
X163831000Y-123735000D01*
X164601000Y-119660000D02*
X163831000Y-120430000D01*
X152222000Y-124646000D02*
X150331000Y-122755000D01*
X163831000Y-123735000D02*
X162920000Y-124646000D01*
X162920000Y-124646000D02*
X152222000Y-124646000D01*
%TO.N,Net-(U4-b)*%
X162061000Y-119660000D02*
X162061000Y-122485000D01*
X162061000Y-122485000D02*
X162331000Y-122755000D01*
%TO.N,Net-(U5-B)*%
X134641000Y-107141000D02*
X134641000Y-100305000D01*
X134465934Y-120100000D02*
X136600000Y-117965934D01*
X157911000Y-125955000D02*
X131843600Y-125955000D01*
X129600000Y-123711400D02*
X129600000Y-121800000D01*
X136600000Y-117965934D02*
X136600000Y-109100000D01*
X162331000Y-130375000D02*
X157911000Y-125955000D01*
X131843600Y-125955000D02*
X129600000Y-123711400D01*
X129600000Y-121800000D02*
X131300000Y-120100000D01*
X136600000Y-109100000D02*
X134641000Y-107141000D01*
X131300000Y-120100000D02*
X134465934Y-120100000D01*
%TO.N,Net-(U5-C)*%
X128163506Y-122842006D02*
X128163506Y-121258494D01*
X128163506Y-121258494D02*
X132101000Y-117321000D01*
X131696500Y-126375000D02*
X128163506Y-122842006D01*
X132101000Y-117321000D02*
X132101000Y-115545000D01*
X159331000Y-130375000D02*
X155331000Y-126375000D01*
X155331000Y-126375000D02*
X131696500Y-126375000D01*
%TO.N,Net-(U4-c)*%
X159521000Y-119660000D02*
X159521000Y-122565000D01*
X159521000Y-122565000D02*
X159331000Y-122755000D01*
%TO.N,Net-(U4-d)*%
X156981000Y-119660000D02*
X156981000Y-122105000D01*
X156981000Y-122105000D02*
X156331000Y-122755000D01*
%TO.N,Net-(U5-D)*%
X156331000Y-130375000D02*
X152732000Y-126776000D01*
X131530400Y-126776000D02*
X127021000Y-122266600D01*
X127021000Y-122266600D02*
X127021000Y-115545000D01*
X152732000Y-126776000D02*
X131530400Y-126776000D01*
%TO.N,Net-(U4-e)*%
X154441000Y-120959000D02*
X153331000Y-122069000D01*
X154441000Y-119660000D02*
X154441000Y-120959000D01*
X153331000Y-122069000D02*
X153331000Y-122755000D01*
%TO.N,Net-(U5-E)*%
X150182000Y-127226000D02*
X131413300Y-127226000D01*
X124481000Y-120293700D02*
X124481000Y-115545000D01*
X153331000Y-130375000D02*
X150182000Y-127226000D01*
X131413300Y-127226000D02*
X124481000Y-120293700D01*
%TO.N,Net-(U5-F)*%
X132331000Y-129845000D02*
X122000000Y-119514000D01*
X126231000Y-97525000D02*
X127021000Y-98315000D01*
X122961000Y-97525000D02*
X126231000Y-97525000D01*
X122000000Y-98486000D02*
X122961000Y-97525000D01*
X127021000Y-98315000D02*
X127021000Y-100305000D01*
X122000000Y-119514000D02*
X122000000Y-98486000D01*
%TO.N,Net-(U4-f)*%
X132331000Y-122755000D02*
X131831000Y-122755000D01*
X135062000Y-125486000D02*
X132331000Y-122755000D01*
X169851000Y-123925000D02*
X168290000Y-125486000D01*
X169851000Y-119830000D02*
X169851000Y-123925000D01*
X169681000Y-119660000D02*
X169811000Y-119790000D01*
X169681000Y-119660000D02*
X169851000Y-119830000D01*
X168290000Y-125486000D02*
X135062000Y-125486000D01*
%TO.N,Net-(U5-G)*%
X131081100Y-128028000D02*
X122401000Y-119347900D01*
X132984000Y-128028000D02*
X131081100Y-128028000D01*
X135331000Y-130375000D02*
X132984000Y-128028000D01*
X124481000Y-108551900D02*
X124481000Y-100305000D01*
X122401000Y-119347900D02*
X122401000Y-110631900D01*
X122401000Y-110631900D02*
X124481000Y-108551900D01*
%TO.N,Net-(U4-g)*%
X135331000Y-122755000D02*
X134831000Y-122755000D01*
X166821000Y-123359000D02*
X165114000Y-125066000D01*
X166821000Y-119980000D02*
X166821000Y-123359000D01*
X165114000Y-125066000D02*
X137642000Y-125066000D01*
X167141000Y-119660000D02*
X166821000Y-119980000D01*
X137642000Y-125066000D02*
X135331000Y-122755000D01*
%TO.N,Net-(U3-IO)*%
X180580000Y-121254000D02*
X182081000Y-122755000D01*
X184331000Y-113285000D02*
X184051000Y-113285000D01*
X180591000Y-116745000D02*
X180591000Y-118717900D01*
X184331000Y-113005000D02*
X180591000Y-116745000D01*
X180580000Y-118728900D02*
X180580000Y-121254000D01*
X180591000Y-118717900D02*
X180580000Y-118728900D01*
%TO.N,Net-(U3-I1)*%
X180981000Y-118895000D02*
X180981000Y-120715000D01*
X184331000Y-115545000D02*
X180981000Y-118895000D01*
X180981000Y-120715000D02*
X181471000Y-121205000D01*
X183531000Y-121205000D02*
X185081000Y-122755000D01*
X184051000Y-115825000D02*
X184331000Y-115825000D01*
X181471000Y-121205000D02*
X183531000Y-121205000D01*
%TO.N,Net-(U3-I2)*%
X179778000Y-120951000D02*
X179494000Y-121235000D01*
X176711000Y-115545000D02*
X179778000Y-118612000D01*
X177601000Y-121235000D02*
X176081000Y-122755000D01*
X179778000Y-118612000D02*
X179778000Y-120951000D01*
X179494000Y-121235000D02*
X177601000Y-121235000D01*
%TO.N,Net-(U3-I3)*%
X180179000Y-116495000D02*
X180179000Y-121657000D01*
X180190000Y-116484000D02*
X180179000Y-116495000D01*
X180190000Y-116484000D02*
X176711000Y-113005000D01*
X180179000Y-121657000D02*
X179081000Y-122755000D01*
%TO.N,Net-(U3-I7)*%
X138467000Y-112956000D02*
X138467000Y-112911100D01*
X141424900Y-122661100D02*
X140837000Y-122661100D01*
X141901100Y-116390100D02*
X138467000Y-112956000D01*
X141946000Y-116390100D02*
X141901100Y-116390100D01*
X141935000Y-122151000D02*
X141424900Y-122661100D01*
X141935000Y-116401100D02*
X141935000Y-122151000D01*
%TO.N,Net-(U3-I6)*%
X141534000Y-120857100D02*
X141129964Y-121261136D01*
X138467000Y-115451100D02*
X138467000Y-115496000D01*
X139824864Y-121261136D02*
X138424900Y-122661100D01*
X138467000Y-115496000D02*
X141534000Y-118563000D01*
X141534000Y-118563000D02*
X141534000Y-120857100D01*
X141129964Y-121261136D02*
X139824864Y-121261136D01*
X138424900Y-122661100D02*
X137837000Y-122661100D01*
%TO.N,Net-(U3-I5)*%
X147331000Y-122755000D02*
X147237100Y-122661100D01*
X142737000Y-118944000D02*
X142737000Y-120621100D01*
X146087000Y-115594000D02*
X142737000Y-118944000D01*
X146087000Y-115451100D02*
X146087000Y-115594000D01*
X143340900Y-121225000D02*
X145801000Y-121225000D01*
X142737000Y-120621100D02*
X143340900Y-121225000D01*
X147237100Y-122661100D02*
X146837000Y-122661100D01*
X145801000Y-121225000D02*
X147331000Y-122755000D01*
%TO.N,Net-(U3-I4)*%
X142347000Y-116794000D02*
X142347000Y-118624000D01*
X142336000Y-118635000D02*
X142336000Y-121245000D01*
X142336000Y-121245000D02*
X143846000Y-122755000D01*
X143846000Y-122755000D02*
X144331000Y-122755000D01*
X146087000Y-113054000D02*
X142347000Y-116794000D01*
X144237100Y-122661100D02*
X143837000Y-122661100D01*
X146087000Y-112911100D02*
X146087000Y-113054000D01*
X144331000Y-122755000D02*
X144237100Y-122661100D01*
%TO.N,Net-(U4-LT)*%
X167141000Y-112040000D02*
X170961000Y-115860000D01*
X170961000Y-115860000D02*
X170961000Y-122385000D01*
X170961000Y-122385000D02*
X171331000Y-122755000D01*
%TO.N,Net-(U4-BI)*%
X168401000Y-122685000D02*
X168331000Y-122755000D01*
X164601000Y-112040000D02*
X168401000Y-115840000D01*
X168401000Y-115840000D02*
X168401000Y-122685000D01*
%TO.N,Net-(U4-RBI)*%
X165861000Y-115840000D02*
X165861000Y-122225000D01*
X165861000Y-122225000D02*
X165331000Y-122755000D01*
X165861000Y-115840000D02*
X162061000Y-112040000D01*
%TO.N,Net-(U2D-+)*%
X134910000Y-97660000D02*
X136130000Y-97660000D01*
X134000000Y-94845000D02*
X134000000Y-96750000D01*
X136610000Y-100939000D02*
X138516000Y-102845000D01*
X134000000Y-96750000D02*
X134910000Y-97660000D01*
X132803469Y-94845000D02*
X134000000Y-94845000D01*
X136130000Y-97660000D02*
X136610000Y-98140000D01*
X134000000Y-94845000D02*
X135190000Y-94845000D01*
X136610000Y-98140000D02*
X136610000Y-100939000D01*
%TD*%
M02*
