M48
; DRILL file {KiCad 9.0.4} date 2026-10-07T20:04:09+0530
; FORMAT={-:-/ absolute / metric / decimal}
; #@! TF.CreationDate,2026-10-07T20:04:09+05:30
; #@! TF.GenerationSoftware,Kicad,Pcbnew,9.0.4
; #@! TF.FileFunction,Plated,1,2,PTH
FMAT,2
METRIC
; #@! TA.AperFunction,Plated,PTH,ComponentDrill
T1C0.800
; #@! TA.AperFunction,Plated,PTH,ComponentDrill
T2C1.000
%
G90
G05
T1
X124.481Y-100.305
X124.481Y-115.545
X125.183Y-94.845
X127.021Y-100.305
X127.021Y-115.545
X129.561Y-100.305
X129.561Y-115.545
X132.101Y-100.305
X132.101Y-115.545
X132.331Y-122.755
X132.331Y-130.375
X132.803Y-94.845
X134.641Y-100.305
X134.641Y-115.545
X135.19Y-94.845
X135.331Y-122.755
X135.331Y-130.375
X138.331Y-122.755
X138.331Y-130.375
X138.516Y-100.305
X138.516Y-102.845
X138.516Y-105.385
X138.516Y-107.925
X138.516Y-110.465
X138.516Y-113.005
X138.516Y-115.545
X139.836Y-119.845
X141.331Y-122.755
X141.331Y-130.375
X142.81Y-94.845
X144.331Y-122.755
X144.331Y-130.375
X144.836Y-119.845
X145.197Y-94.845
X146.136Y-100.305
X146.136Y-102.845
X146.136Y-105.385
X146.136Y-107.925
X146.136Y-110.465
X146.136Y-113.005
X146.136Y-115.545
X147.331Y-122.755
X147.331Y-130.375
X150.331Y-101.15
X150.331Y-106.15
X150.331Y-113.34
X150.331Y-118.34
X150.331Y-122.755
X150.331Y-130.375
X152.817Y-94.845
X153.331Y-122.755
X153.331Y-130.375
X154.441Y-99.845
X154.441Y-107.465
X154.441Y-112.04
X154.441Y-119.66
X155.203Y-94.845
X156.331Y-122.755
X156.331Y-130.375
X156.981Y-99.845
X156.981Y-107.465
X156.981Y-112.04
X156.981Y-119.66
X159.331Y-122.755
X159.331Y-130.375
X159.521Y-99.845
X159.521Y-107.465
X159.521Y-112.04
X159.521Y-119.66
X162.061Y-99.845
X162.061Y-107.465
X162.061Y-112.04
X162.061Y-119.66
X162.331Y-122.755
X162.331Y-130.375
X162.823Y-94.845
X164.601Y-99.845
X164.601Y-107.465
X164.601Y-112.04
X164.601Y-119.66
X165.21Y-94.845
X165.331Y-122.755
X165.331Y-130.375
X167.141Y-99.845
X167.141Y-107.465
X167.141Y-112.04
X167.141Y-119.66
X168.331Y-122.755
X168.331Y-130.375
X169.681Y-99.845
X169.681Y-107.465
X169.681Y-112.04
X169.681Y-119.66
X171.331Y-122.755
X171.331Y-130.375
X172.221Y-99.845
X172.221Y-107.465
X172.221Y-112.04
X172.221Y-119.66
X172.83Y-94.845
X175.216Y-94.845
X176.041Y-122.755
X176.041Y-130.375
X176.711Y-100.305
X176.711Y-102.845
X176.711Y-105.385
X176.711Y-107.925
X176.711Y-110.465
X176.711Y-113.005
X176.711Y-115.545
X178.031Y-119.845
X179.041Y-122.755
X179.041Y-130.375
X182.041Y-122.755
X182.041Y-130.375
X182.836Y-94.845
X183.031Y-119.845
X184.331Y-100.305
X184.331Y-102.845
X184.331Y-105.385
X184.331Y-107.925
X184.331Y-110.465
X184.331Y-113.005
X184.331Y-115.545
X185.041Y-122.755
X185.041Y-130.375
X185.223Y-94.845
X189.581Y-107.845
X192.843Y-94.845
X195.229Y-94.85
X202.849Y-94.85
X205.081Y-107.845
T2
X124.9Y-126.735
X124.9Y-129.275
X194.83Y-121.73
X197.33Y-126.73
X199.83Y-121.73
M30
